<svg width="32" height="32" viewBox="0 0 32 32" fill="none" xmlns="http://www.w3.org/2000/svg">
<g clip-path="url(#clip0_1_17)">
<path d="M29.7143 0H2.28571C1.02335 0 0 1.06125 0 2.37037V29.6296C0 30.9387 1.02335 32 2.28571 32H29.7143C30.9767 32 32 30.9387 32 29.6296V2.37037C32 1.06125 30.9767 0 29.7143 0Z" fill="url(#paint0_linear_1_17)"/>
<rect width="32" height="11" fill="#121E2C"/>
<path d="M29.7143 0H2.28571C1.02335 0 0 1.06125 0 2.37037V29.6296C0 30.9387 1.02335 32 2.28571 32H29.7143C30.9767 32 32 30.9387 32 29.6296V2.37037C32 1.06125 30.9767 0 29.7143 0Z" stroke="#2E4A6E" stroke-width="0.8"/>
<path d="M5.16666 9.18518C2.9473 9.18518 1.14814 7.38603 1.14814 5.16667C1.14814 2.9473 2.9473 1.14815 5.16666 1.14815C7.38603 1.14815 9.18518 2.9473 9.18518 5.16667C9.18518 7.38603 7.38603 9.18518 5.16666 9.18518Z" fill="#485467" stroke="#344760" stroke-width="0.6"/>
<path d="M26.5988 9.18518C24.3794 9.18518 22.5803 7.38603 22.5803 5.16667C22.5803 2.9473 24.3794 1.14815 26.5988 1.14815C28.8181 1.14815 30.6173 2.9473 30.6173 5.16667C30.6173 7.38603 28.8181 9.18518 26.5988 9.18518Z" fill="#485467" stroke="#344760" stroke-width="0.6"/>
<path d="M15.8827 9.18518C13.6633 9.18518 11.8642 7.38603 11.8642 5.16667C11.8642 2.9473 13.6633 1.14815 15.8827 1.14815C18.1021 1.14815 19.9012 2.9473 19.9012 5.16667C19.9012 7.38603 18.1021 9.18518 15.8827 9.18518Z" fill="#485467" stroke="#344760" stroke-width="0.6"/>
<path d="M3.82715 6.50617L6.50616 3.82716M3.82715 3.82716L6.50616 6.50617" stroke="#CCC1C1" stroke-linecap="round" stroke-linejoin="round"/>
<path d="M17.2222 5.16667L15.8827 6.50618L14.5432 5.16667" stroke="#CCC1C1" stroke-linecap="round" stroke-linejoin="round"/>
<path d="M25.2593 5.16666L26.5988 3.82716L27.9383 5.16666" stroke="#CCC1C1" stroke-linecap="round" stroke-linejoin="round"/>
<path d="M21.6959 16.9587L14.5133 19.1697L10.3004 16.0095L17.0074 14.1677L21.6959 16.9587Z" fill="#729FCF" stroke="white"/>
<path d="M13.9166 19.9721V27.4008L10.0035 23.7474L9.72717 16.8295L13.9166 19.9721Z" fill="#E40000" stroke="white"/>
<path d="M21.7914 24.94L14.9184 27.8032V20.0943L22.3627 17.8032L21.7914 24.94Z" fill="#7FE719" stroke="white"/>
</g>
<defs>
<linearGradient id="paint0_linear_1_17" x1="0" y1="0" x2="0" y2="32" gradientUnits="userSpaceOnUse">
<stop stop-color="#2E4A6E"/>
<stop offset="1" stop-color="#121E2C"/>
</linearGradient>
<clipPath id="clip0_1_17">
<rect width="32" height="32" fill="white"/>
</clipPath>
</defs>
</svg>
